<svg width="78" height="77" viewBox="0 0 78 77" fill="none" xmlns="http://www.w3.org/2000/svg">
<path d="M47.8867 54.0933L31.4931 70.4867C24.7455 77.2341 13.7522 77.2341 7.00475 70.4865C0.257342 63.7391 0.257342 52.7457 7.00491 45.9981L23.3985 29.6048C24.552 28.4512 25.8511 27.5011 27.2181 26.7353C25.1144 30.5453 24.5424 34.9756 25.5118 39.1248L12.8216 51.815C9.27337 55.3633 9.27337 61.1217 12.8215 64.6699C16.3599 68.2084 22.1281 68.2182 25.6764 64.6699L42.0701 48.2766C43.2916 47.0551 44.0865 45.5622 44.4646 43.9819C45.1724 41.0057 44.3871 37.7387 42.0699 35.4218C39.753 33.1048 36.4861 32.3195 33.5098 33.0271C33.8879 31.4469 34.6828 29.954 35.9141 28.7229L39.6078 25.0293C42.6422 25.7371 45.531 27.2494 47.8868 29.6052C50.2426 31.961 51.7549 34.85 52.4627 37.8842C53.4321 42.0335 52.87 46.4542 50.7565 50.2738C49.9904 51.6405 49.0404 52.9397 47.8867 54.0933Z" fill="#105B45"/>
<path d="M70.9791 31.0011L54.5855 47.3944C53.4221 48.5577 52.1232 49.5078 50.7562 50.2737C52.8697 46.4541 53.4319 42.0334 52.4625 37.8842L65.1623 25.1843C68.7106 21.6361 68.701 15.8679 65.1623 12.3294C61.6142 8.78117 55.8557 8.78117 52.3074 12.3294L35.9139 28.7228C34.6826 29.9539 33.8877 31.4468 33.5096 33.0271C32.8019 36.0032 33.5969 39.2606 35.9139 41.5776C38.2308 43.8945 41.4883 44.6895 44.4644 43.9819C44.0862 45.5621 43.2914 47.055 42.0699 48.2765L38.3665 51.9799C35.3321 51.272 32.453 49.7501 30.0971 47.3943C27.7413 45.0385 26.2194 42.1593 25.5116 39.1249C24.5422 34.9756 25.1141 30.5453 27.2179 26.7354C27.9838 25.3684 28.9338 24.0693 30.0971 22.9061L46.4909 6.51271C53.2384 -0.234705 64.232 -0.234705 70.9792 6.51271C77.7266 13.2601 77.7266 24.2536 70.9791 31.0011Z" fill="#105B45"/>
<path d="M45.6455 5.66703L29.2528 22.0598C28.1455 23.1671 27.175 24.4475 26.3498 25.8636C24.9359 26.6872 23.6566 27.6561 22.5538 28.7589L6.15998 45.1526C-1.06194 52.3721 -1.06115 64.1114 6.15998 71.33C13.3751 78.5473 25.1201 78.5499 32.3385 71.3311L48.7313 54.9374C49.8333 53.8353 50.8007 52.558 51.6256 51.1432C53.0395 50.3198 54.3226 49.3472 55.4303 48.2383L71.8242 31.8445C79.0434 24.6276 79.0452 12.8855 71.8242 5.66703C64.6075 -1.55189 52.8666 -1.55426 45.6455 5.66703ZM49.7105 49.6936C49.7101 49.6942 49.7101 49.6947 49.7098 49.6952C48.9614 51.0299 48.0631 52.2255 47.0412 53.2474L30.6487 69.6412C24.3601 75.9274 14.1365 75.9268 7.84984 69.6401C1.56193 63.3522 1.56335 53.1289 7.84984 46.8426C19.1858 35.5083 24.3031 30.3854 24.5331 30.1663C23.7547 32.9683 23.6869 36.0879 24.2075 38.7385L11.9765 50.9694L11.9718 50.9742C7.95472 54.9913 7.95298 61.4994 11.9718 65.5182C15.9802 69.5264 22.5069 69.5294 26.5171 65.5193C27.963 64.0733 40.926 51.1092 42.9144 49.1207C46.7746 45.2605 47.0547 38.7157 42.9144 34.5754C40.8773 32.5395 38.1288 31.4774 35.3195 31.5822C35.7293 30.7684 36.2291 30.0965 36.7592 29.5664L39.9721 26.3535C42.6621 27.0957 45.0944 28.5031 47.0411 30.4487C52.0195 35.427 53.2293 43.3362 49.7105 49.6936ZM24.937 41.39C25.8103 43.8582 27.3296 46.3153 29.2528 48.2383C31.15 50.1351 33.512 51.6269 36.1011 52.5541L24.8319 63.8233C21.7531 66.9008 16.7453 66.9032 13.6665 63.8233C10.589 60.7457 10.589 55.7367 13.6665 52.659L24.937 41.39ZM36.7593 40.7317C34.9903 38.9637 34.1971 36.5142 34.5427 34.0576C37.007 33.7103 39.4596 34.5004 41.2245 36.2653C42.9908 38.0316 43.781 40.4841 43.4322 42.9489C40.9746 43.2946 38.5271 42.4995 36.7593 40.7317ZM48.7313 28.7587C46.8024 26.8299 44.4558 25.3706 41.8693 24.4565L53.1521 13.1738C56.2244 10.1014 61.2211 10.0774 64.3175 13.1738C67.395 16.2513 67.395 21.2604 64.3175 24.338L53.0338 35.6219C52.1203 33.0358 50.6615 30.6891 48.7313 28.7587ZM70.1342 30.1546C58.5483 41.7387 53.6798 46.6129 53.4438 46.8378C54.1624 44.2525 54.3355 41.1592 53.7672 38.2681L66.0075 26.0277C70.0176 22.0176 70.0176 15.4937 66.0075 11.4837C61.9959 7.4722 55.4885 7.45751 51.4622 11.4837C45.899 17.0469 39.8711 23.0748 35.0695 27.8765C33.7308 29.2139 32.7901 30.8992 32.3478 32.7478C32.3477 32.7488 32.3477 32.7499 32.3475 32.7508C31.5116 36.2665 32.5292 39.8826 35.0695 42.4216C37.1067 44.4599 39.8519 45.5198 42.6566 45.423C42.6364 45.4633 42.6201 45.5053 42.5993 45.5451C42.2066 46.2924 41.7118 46.9434 41.2247 47.4307L38.0126 50.6428C35.2832 49.8896 32.8326 48.4384 30.9428 46.5485C24.7364 40.3386 24.6365 30.0627 30.9428 23.7496L47.3354 7.35705C53.6203 1.07214 63.8475 1.07056 70.1342 7.35705C76.4191 13.642 76.4207 23.8681 70.1342 30.1546Z" fill="#E6FF94"/>
<path d="M18.7421 18.2486C19.2088 17.7818 19.2088 17.0255 18.7421 16.5587L16.5235 14.3413C16.0567 13.8745 15.3004 13.8745 14.8337 14.3413C14.3669 14.8081 14.3669 15.5644 14.8337 16.0311L17.0522 18.2486C17.519 18.7155 18.2753 18.7155 18.7421 18.2486Z" fill="#E6FF94"/>
<path d="M24.5214 10.99V14.1271C24.5214 14.7877 25.0559 15.3223 25.7165 15.3223C26.3771 15.3223 26.9116 14.7877 26.9116 14.1271V10.99C26.9116 10.3295 26.3771 9.79492 25.7165 9.79492C25.0559 9.79492 24.5214 10.3295 24.5214 10.99Z" fill="#E6FF94"/>
<path d="M11.4829 24.0283C10.8223 24.0283 10.2878 24.5629 10.2878 25.2234C10.2878 25.884 10.8223 26.4186 11.4829 26.4186H14.62C15.2806 26.4186 15.8151 25.884 15.8151 25.2234C15.8151 24.5629 15.2806 24.0283 14.62 24.0283H11.4829Z" fill="#E6FF94"/>
<path d="M59.243 58.7495C58.7763 59.2163 58.7763 59.9726 59.243 60.4393L61.4605 62.6579C61.9272 63.1247 62.6835 63.1247 63.1503 62.6579C63.6171 62.1911 63.6171 61.4348 63.1503 60.968L60.9329 58.7495C60.4661 58.2827 59.7098 58.2827 59.243 58.7495Z" fill="#E6FF94"/>
<path d="M53.4624 66.007V62.8699C53.4624 62.2093 52.9279 61.6748 52.2673 61.6748C51.6067 61.6748 51.0721 62.2093 51.0721 62.8699V66.007C51.0721 66.6676 51.6067 67.2021 52.2673 67.2021C52.9279 67.202 53.4624 66.6676 53.4624 66.007Z" fill="#E6FF94"/>
<path d="M66.5011 50.5791H63.364C62.7034 50.5791 62.1689 51.1136 62.1689 51.7742C62.1689 52.4348 62.7034 52.9694 63.364 52.9694H66.5011C67.1617 52.9694 67.6962 52.4348 67.6962 51.7742C67.6961 51.1136 67.1615 50.5791 66.5011 50.5791Z" fill="#E6FF94"/>
</svg>
