<svg width="14" height="18" viewBox="0 0 14 18" fill="none" xmlns="http://www.w3.org/2000/svg">
  <path d="M13 9.99979L13.033 10.0018H13.059L13.085 10.0048L13.117 10.0068L13.148 10.0128L13.176 10.0158L13.2 10.0218L13.23 10.0258L13.265 10.0378L13.292 10.0428L13.311 10.0508L13.337 10.0578L13.37 10.0728L13.404 10.0848L13.422 10.0948L13.44 10.1018L13.483 10.1258L13.511 10.1398L13.52 10.1468L13.536 10.1558L13.587 10.1928L13.613 10.2098L13.616 10.2138L13.626 10.2198C13.6828 10.2657 13.7345 10.3176 13.78 10.3748L13.786 10.3838L13.801 10.4038L13.844 10.4638L13.853 10.4798L13.86 10.4888L13.874 10.5168L13.898 10.5598L13.903 10.5728L13.915 10.5958L13.927 10.6298L13.942 10.6628L13.949 10.6888L13.957 10.7088L13.962 10.7348L13.974 10.7708L13.978 10.7998L13.984 10.8238L13.987 10.8518L13.993 10.8828L13.995 10.9148L13.998 10.9408V10.9668L14 10.9998L13.998 11.0328V11.0588L13.995 11.0848L13.993 11.1168L13.987 11.1478L13.984 11.1758L13.978 11.1998L13.974 11.2298L13.962 11.2648L13.957 11.2918L13.949 11.3108L13.942 11.3368L13.927 11.3698L13.915 11.4038L13.905 11.4218L13.898 11.4398L13.874 11.4828L13.86 11.5108L13.853 11.5198L13.844 11.5358L13.802 11.5938L13.79 11.6128L13.786 11.6158L13.78 11.6258L13.707 11.7068L7.70701 17.7068C7.51948 17.8943 7.26517 17.9996 7.00001 17.9996C6.73484 17.9996 6.48053 17.8943 6.29301 17.7068L0.293007 11.7068C-0.336993 11.0768 0.109007 9.99979 1.00001 9.99979H13Z" fill="#25AC88"/>
</svg>
