<svg width="210" height="180" viewBox="0 0 210 180" fill="none" xmlns="http://www.w3.org/2000/svg">
<path d="M186.157 109.918C167.104 80.745 169.129 50.8416 159.946 36.7815C150.762 22.7215 123.393 -1.51964 58.7245 40.721C-5.94369 82.9616 10.5042 128.88 20.6097 144.34C67.9031 216.741 219.904 161.584 186.157 109.918Z" fill="#092518"/>
<g clip-path="url(#clip0_2759_2083)">
<path d="M160.736 83.8549V156.752C160.729 159.05 158.868 160.911 156.57 160.917H52.4321C50.1343 160.911 48.2733 159.05 48.2666 156.752V83.8549L71.1771 40.1172H137.825L160.736 83.8549Z" fill="#0F360C"/>
<path d="M154.487 83.8549V156.752C154.48 159.05 152.619 160.911 150.322 160.917H52.4321C50.1343 160.911 48.2733 159.05 48.2666 156.752V83.8549L71.1771 40.1172H131.578L154.487 83.8549Z" fill="#0E150E"/>
<path d="M160.736 83.8549H48.2666L71.1771 40.1172H137.825L160.736 83.8549Z" fill="#0F360C"/>
<path d="M154.487 83.8549H48.2666L71.1771 40.1172H131.578L154.487 83.8549Z" fill="#0F360C"/>
<path d="M137.825 40.1172V83.8549H132.077C131.881 83.8578 131.687 83.8711 131.493 83.8969C130.137 84.0923 128.962 84.9409 128.348 86.167L122.308 98.2047C121.606 99.6205 120.161 100.516 118.58 100.517H90.4214C88.8406 100.516 87.3971 99.6205 86.6935 98.2047L80.6537 86.167C79.95 84.7511 78.5056 83.8559 76.9249 83.8549H71.1768V40.1172H137.825Z" fill="#25AC88"/>
<path d="M131.577 40.1172V83.8549H125.828C124.247 83.8559 122.804 84.7511 122.1 86.167L116.061 98.2047C115.357 99.6205 113.912 100.516 112.332 100.517H90.4214C88.8406 100.516 87.3971 99.6205 86.6935 98.2047L80.6537 86.167C79.95 84.7511 78.5056 83.8559 76.9249 83.8549H71.1768V40.1172H131.577Z" fill="#122E21"/>
<path d="M89.9227 117.179H119.081C123.682 117.179 127.412 120.909 127.412 125.511C127.412 130.111 123.682 133.841 119.081 133.841H89.9227C85.3215 133.841 81.5918 130.111 81.5918 125.511C81.5918 120.909 85.3215 117.179 89.9227 117.179Z" fill="#25AC88"/>
<path d="M54.5153 156.752V83.8549L71.0474 48.838L71.1771 40.1172L48.2666 83.8549V156.752C48.2733 159.05 50.1343 160.911 52.4321 160.917H58.6807C56.383 160.911 54.5219 159.05 54.5153 156.752Z" fill="#04251C"/>
<path d="M48.2647 85.9369C47.9291 85.9379 47.5973 85.8559 47.3008 85.6995C46.8107 85.4431 46.4427 85.0035 46.2778 84.4753C46.1138 83.9481 46.1653 83.377 46.4217 82.8879L69.3322 39.1492C69.6697 38.4761 70.3438 38.0375 71.096 38.0013C71.8492 37.966 72.5614 38.3398 72.9609 38.9786C73.3604 39.6173 73.3833 40.4211 73.0219 41.0818L50.1114 84.8195C49.752 85.5069 49.0408 85.9379 48.2647 85.9369Z" fill="#33B884"/>
<path d="M160.739 85.9371C159.964 85.9381 159.251 85.5081 158.892 84.8207L135.981 41.0829C135.473 40.0676 135.872 38.8319 136.878 38.3057C137.883 37.7784 139.126 38.155 139.671 39.1504L162.582 82.8881C162.838 83.3782 162.891 83.9493 162.726 84.4765C162.561 85.0037 162.193 85.4442 161.703 85.7007C161.406 85.857 161.074 85.9381 160.739 85.9371Z" fill="#33B884"/>
<path d="M46.1846 156.752V83.8555H50.35V156.752H46.1846Z" fill="#04251C"/>
<path d="M48.2668 146.338C47.118 146.341 46.1874 147.271 46.1846 148.42V156.752H50.35V148.42C50.3462 147.271 49.4157 146.342 48.2668 146.338Z" fill="#33B884"/>
<path d="M50.35 83.8545H46.1846V131.758C46.1846 132.908 47.117 133.841 48.2668 133.841C49.4176 133.841 50.35 132.908 50.35 131.758V83.8545Z" fill="#33B884"/>
<path d="M46.1846 140.089C46.1922 140.641 46.4077 141.168 46.7881 141.568L47.1008 141.818C47.2171 141.897 47.343 141.96 47.4755 142.005C47.5937 142.066 47.7196 142.107 47.8502 142.13C47.9884 142.154 48.1276 142.168 48.2668 142.172C48.8188 142.165 49.347 141.948 49.7456 141.568C50.5321 140.739 50.5321 139.44 49.7456 138.61C49.5463 138.423 49.3137 138.274 49.0582 138.174C48.8084 138.067 48.5395 138.01 48.2668 138.007C47.7157 138.015 47.1876 138.231 46.7881 138.61C46.4086 139.01 46.1932 139.538 46.1846 140.089Z" fill="#33B884"/>
<path d="M118.589 102.6H90.4143C88.045 102.608 85.8779 101.268 84.8254 99.1459L78.797 87.0891C78.4461 86.3807 77.7234 85.9345 76.933 85.9374H48.2668C47.117 85.9374 46.1846 85.0049 46.1846 83.8551C46.1846 82.7044 47.117 81.7719 48.2668 81.7719H69.095V40.1174C69.095 38.9666 70.0275 38.0342 71.1773 38.0342H137.826C138.976 38.0342 139.909 38.9666 139.909 40.1174V83.8551C139.909 85.0049 138.976 85.9374 137.826 85.9374H132.07C131.279 85.9345 130.557 86.3807 130.207 87.0891L124.178 99.1459C123.125 101.268 120.958 102.608 118.589 102.6ZM73.2605 81.7719H76.933C79.3023 81.7643 81.4694 83.1038 82.5229 85.2261L88.5513 97.283C88.9022 97.9914 89.6248 98.4375 90.4143 98.4347H118.589C119.378 98.4375 120.102 97.9914 120.451 97.283L126.48 85.2261C127.533 83.1038 129.701 81.7643 132.07 81.7719H135.743V42.1996H73.2605V81.7719Z" fill="#33B884"/>
<path d="M156.571 162.999H52.4323C48.9828 162.995 46.1884 160.2 46.1846 156.752C46.1846 155.601 47.117 154.668 48.2668 154.668C49.4176 154.668 50.35 155.601 50.35 156.752C50.35 157.901 51.2825 158.833 52.4323 158.834H156.571C157.72 158.833 158.653 157.901 158.653 156.752V85.9369H135.743C134.592 85.9369 133.66 85.0045 133.66 83.8547C133.66 82.7039 134.592 81.7715 135.743 81.7715H160.736C161.886 81.7715 162.819 82.7039 162.819 83.8547V156.752C162.815 160.2 160.02 162.995 156.571 162.999Z" fill="#33B884"/>
<path d="M119.081 135.924H89.9229C84.171 135.924 79.5088 131.262 79.5088 125.511C79.5088 119.759 84.171 115.097 89.9229 115.097H119.081C124.833 115.097 129.495 119.759 129.495 125.511C129.495 131.262 124.833 135.924 119.081 135.924ZM89.9229 119.262C86.4716 119.262 83.6742 122.059 83.6742 125.511C83.6742 128.961 86.4716 131.758 89.9229 131.758H119.081C122.532 131.758 125.33 128.961 125.33 125.511C125.33 122.059 122.532 119.262 119.081 119.262H89.9229Z" fill="#33B884"/>
<path d="M56.5979 98.4354C55.4481 98.4354 54.5156 97.5029 54.5156 96.3522V92.1867C54.5156 91.0369 55.4481 90.1035 56.5979 90.1035C57.7486 90.1035 58.6811 91.0369 58.6811 92.1867V96.3522C58.6811 97.5029 57.7486 98.4354 56.5979 98.4354Z" fill="#33B884"/>
<path d="M56.5979 140.089C55.4481 140.089 54.5156 139.156 54.5156 138.006V104.682C54.5156 103.532 55.4481 102.6 56.5979 102.6C57.7486 102.6 58.6811 103.532 58.6811 104.682V138.006C58.6811 139.156 57.7486 140.089 56.5979 140.089Z" fill="#33B884"/>
</g>
<path d="M199.591 53.0012C194.278 53.0012 189.954 48.6773 189.954 43.3639C189.954 38.0505 194.278 33.7266 199.591 33.7266C204.905 33.7266 209.229 38.0505 209.229 43.3639C209.229 48.6773 204.911 53.0012 199.591 53.0012ZM199.591 40.1514C197.818 40.1514 196.379 41.5906 196.379 43.3639C196.379 45.1372 197.818 46.5763 199.591 46.5763C201.365 46.5763 202.804 45.1372 202.804 43.3639C202.804 41.5906 201.365 40.1514 199.591 40.1514Z" fill="#25AC88"/>
<path d="M1.12891 4.54395L5.67199 0.000865445L14.7581 9.08703L10.2151 13.6301L1.12891 4.54395Z" fill="#25AC88"/>
<path d="M27.249 30.6699L31.7921 26.1268L40.8783 35.213L36.3352 39.7561L27.249 30.6699Z" fill="#25AC88"/>
<path d="M0 35.2012L9.08616 26.115L13.6292 30.6581L4.54308 39.7443L0 35.2012Z" fill="#25AC88"/>
<path d="M26.126 9.08594L35.2121 -0.000222234L39.7552 4.54286L30.6691 13.629L26.126 9.08594Z" fill="#25AC88"/>
<defs>
<clipPath id="clip0_2759_2083">
<rect width="125" height="125" fill="white" transform="translate(42 38)"/>
</clipPath>
</defs>
</svg>
