<svg width="24" height="24" viewBox="0 0 24 24" fill="none" xmlns="http://www.w3.org/2000/svg">
<path d="M3.10968 7.92768V15.5837C3.10968 16.1937 3.40968 16.7617 3.89868 17.0667L11.4657 21.7777C11.9657 22.0837 12.5707 22.0727 13.0597 21.7507L20.1327 17.0727C20.3687 16.9096 20.5611 16.6909 20.6927 16.436C20.8244 16.181 20.8913 15.8976 20.8877 15.6107V8.41768C20.8877 7.81768 20.5987 7.26168 20.1327 6.95668L13.0207 2.24968C12.7959 2.09842 12.5334 2.01269 12.2627 2.00209C11.992 1.9915 11.7236 2.05645 11.4877 2.18968L3.95968 6.40468C3.69595 6.56042 3.4783 6.78339 3.32896 7.05079C3.17962 7.3182 3.10395 7.62145 3.10968 7.92768Z" fill="#FFE81C"/>
<path d="M11.9977 14.2227L9.2207 12.5557L11.9977 16.9997V14.2227Z" fill="#8C800F"/>
<path d="M12.001 14.2227L14.779 12.5557L12 16.9997L12.001 14.2227Z" fill="#332E06"/>
<path d="M11.9997 10.3333V6.44434L9.22266 11.9993L11.9997 10.3333Z" fill="#8C800F"/>
<path d="M12 10.3333V6.44434L14.778 11.9993L12 10.3333Z" fill="#332E06"/>
<path d="M12 13.667V10.334L14.778 12L12 13.667Z" fill="#141302"/>
<path d="M11.9997 13.667V10.334L9.22266 12L11.9997 13.667Z" fill="#383306"/>
</svg>
