<svg width="14" height="18" viewBox="0 0 14 18" fill="none" xmlns="http://www.w3.org/2000/svg">
  <path d="M6.29301 0.292786C6.48053 0.105315 6.73484 0 7.00001 0C7.26517 0 7.51948 0.105315 7.70701 0.292786L13.707 6.29279C13.7328 6.31876 13.7572 6.34614 13.78 6.37479L13.786 6.38279L13.802 6.40479L13.844 6.46379L13.853 6.47879L13.86 6.48879L13.874 6.51579L13.898 6.55979L13.905 6.57679L13.915 6.59679L13.927 6.62879L13.942 6.66279L13.949 6.68779L13.957 6.70779L13.962 6.73379L13.974 6.77079L13.978 6.79879L13.984 6.82379L13.987 6.84979L13.993 6.88279L13.995 6.91279L13.998 6.94079V6.96679L14 6.99979L13.998 7.03279V7.05879L13.995 7.08479L13.993 7.11679L13.988 7.14579L13.984 7.17579L13.978 7.19979L13.974 7.22978L13.962 7.26479L13.957 7.29179L13.949 7.31079L13.942 7.33679L13.927 7.36979L13.915 7.40379L13.905 7.42179L13.898 7.43979L13.874 7.48279L13.86 7.51079L13.853 7.51979L13.844 7.53579L13.802 7.59379L13.79 7.61279L13.786 7.61579L13.78 7.62579C13.7341 7.68263 13.6821 7.73427 13.625 7.77979L13.616 7.78579L13.594 7.80179L13.536 7.84379L13.52 7.85279L13.511 7.85979L13.483 7.87379L13.44 7.89779L13.422 7.90479L13.404 7.91479L13.37 7.92679L13.337 7.94179L13.313 7.94779L13.292 7.95679L13.265 7.96179L13.229 7.97379L13.2 7.97779L13.176 7.98379L13.148 7.98679L13.117 7.99279L13.085 7.99479L13.059 7.99779H13.033L13 7.99979H1.00001C0.110007 7.99979 -0.336993 6.92279 0.293007 6.29279L6.29301 0.292786Z" fill="#25AC88"/>
</svg>
