<svg width="120" height="103" viewBox="0 0 120 103" fill="none" xmlns="http://www.w3.org/2000/svg">
<path d="M77.5 80.6781H25.2533C23.7333 80.6781 22.5 79.4447 22.5 77.9247V37.3447H84.1667V74.0114C84.1667 77.6947 81.1833 80.6781 77.5 80.6781Z" fill="#F3F3F1"/>
<path d="M74.9367 20.7284C74.35 19.6684 73.2333 19.0117 72.0233 19.0117H34.6433C33.4333 19.0117 32.3167 19.6684 31.73 20.7284L22.5 37.3451H84.1667L74.9367 20.7284Z" fill="#A7E3C4"/>
<path d="M78.3327 94.013C88.9181 94.013 97.4994 85.4318 97.4994 74.8464C97.4994 64.2609 88.9181 55.6797 78.3327 55.6797C67.7472 55.6797 59.166 64.2609 59.166 74.8464C59.166 85.4318 67.7472 94.013 78.3327 94.013Z" fill="#A7E3C4"/>
<path d="M30 77.9247V37.3447H22.5V77.9247C22.5 79.4447 23.7333 80.6781 25.2533 80.6781H32.7533C31.2333 80.6781 30 79.4447 30 77.9247Z" fill="#D5DBE1"/>
<path d="M42.1433 19.0117H34.6433C33.4333 19.0117 32.3167 19.6684 31.73 20.7284L22.5 37.3451H30L39.23 20.7284C39.8167 19.6684 40.9333 19.0117 42.1433 19.0117Z" fill="#00B871"/>
<path d="M66.666 74.8464C66.666 65.5464 73.2927 57.7964 82.0827 56.053C80.8693 55.813 79.616 55.6797 78.3327 55.6797C67.746 55.6797 59.166 64.2597 59.166 74.8464C59.166 85.433 67.746 94.013 78.3327 94.013C79.616 94.013 80.8693 93.883 82.0827 93.6397C73.2927 91.8964 66.666 84.1464 66.666 74.8464Z" fill="#00B871"/>
<path d="M13.541 24.0127C10.7843 24.0127 8.54102 21.7694 8.54102 19.0127C8.54102 16.256 10.7843 14.0127 13.541 14.0127C16.2977 14.0127 18.541 16.256 18.541 19.0127C18.541 21.7694 16.2977 24.0127 13.541 24.0127ZM13.541 17.346C12.621 17.346 11.8743 18.0927 11.8743 19.0127C11.8743 19.9327 12.621 20.6794 13.541 20.6794C14.461 20.6794 15.2077 19.9327 15.2077 19.0127C15.2077 18.0927 14.461 17.346 13.541 17.346Z" fill="#A4AFC1"/>
<path d="M92.7266 20.2334L95.0836 17.8764L99.7976 22.5904L97.4406 24.9474L92.7266 20.2334Z" fill="#A4AFC1"/>
<path d="M106.27 33.7666L108.627 31.4096L113.341 36.1236L110.984 38.4806L106.27 33.7666Z" fill="#A4AFC1"/>
<path d="M92.1387 36.1416L96.8527 31.4276L99.2097 33.7846L94.4957 38.4986L92.1387 36.1416Z" fill="#A4AFC1"/>
<path d="M105.688 22.5908L110.402 17.8768L112.759 20.2338L108.045 24.9478L105.688 22.5908Z" fill="#A4AFC1"/>
<path d="M80.8333 80.6781H75.8333V79.8747C75.8333 76.6481 77.4467 73.5614 80.2567 71.4014C81.14 70.7247 81.6667 69.6214 81.6667 68.4547C81.6667 66.4614 80.17 64.8447 78.3333 64.8447C76.4967 64.8447 75 66.4647 75 68.4547H70C70 63.7081 73.74 59.8447 78.3333 59.8447C82.9267 59.8447 86.6667 63.7081 86.6667 68.4547C86.6667 71.1647 85.41 73.7514 83.3033 75.3681C82.38 76.0747 80.8333 77.6014 80.8333 79.8747V80.6781Z" fill="black"/>
<path d="M78.3327 96.512C66.386 96.512 56.666 86.792 56.666 74.8454C56.666 62.8987 66.386 53.1787 78.3327 53.1787C90.2794 53.1787 99.9993 62.8987 99.9993 74.8454C99.9993 86.792 90.2794 96.512 78.3327 96.512ZM78.3327 58.1787C69.1427 58.1787 61.666 65.6554 61.666 74.8454C61.666 84.0354 69.1427 91.512 78.3327 91.512C87.5227 91.512 94.9993 84.0354 94.9993 74.8454C94.9993 65.6554 87.5227 58.1787 78.3327 58.1787Z" fill="black"/>
<path d="M50.8333 83.1781H25.2533C22.3567 83.1781 20 80.8214 20 77.9247V37.3447C20 35.9647 21.12 34.8447 22.5 34.8447H84.1667C85.5467 34.8447 86.6667 35.9647 86.6667 37.3447V47.3447H81.6667V39.8447H25V77.9247C25 78.0647 25.1133 78.1781 25.2533 78.1781H50.8333V83.1781Z" fill="black"/>
<path d="M81.9805 38.5594L72.7505 21.9427C72.6072 21.676 72.3272 21.5127 72.0239 21.5127H34.6439C34.3405 21.5127 34.0605 21.676 33.9139 21.9394L24.6839 38.5594L20.3105 36.1294L29.5439 19.5127C30.5705 17.6627 32.5239 16.5127 34.6439 16.5127H72.0239C74.1439 16.5127 76.0972 17.6627 77.1239 19.516L86.3539 36.1327L81.9805 38.5594Z" fill="black"/>
<path d="M50.834 19.0117H55.834V37.3451H50.834V19.0117Z" fill="black"/>
<path d="M78.332 89.8457C77.9987 89.8457 77.6987 89.779 77.3654 89.6457C77.0654 89.5123 76.7987 89.3457 76.5654 89.1123C76.0987 88.6457 75.832 88.0123 75.832 87.3457C75.832 87.0123 75.8987 86.679 76.032 86.379C76.1654 86.079 76.332 85.8123 76.5654 85.579C76.7987 85.3457 77.0654 85.1457 77.3654 85.0457C78.2987 84.6457 79.3987 84.879 80.0987 85.579C80.332 85.8123 80.4987 86.079 80.632 86.379C80.7654 86.679 80.832 87.0123 80.832 87.3457C80.832 88.0123 80.5654 88.6457 80.0987 89.1123C79.632 89.579 78.9987 89.8457 78.332 89.8457Z" fill="black"/>
</svg>
