<svg width="180" height="187" viewBox="0 0 180 187" fill="none" xmlns="http://www.w3.org/2000/svg">
<path d="M44.9643 129.474L12.983 162.838L23.5489 173.863L55.5226 140.491C67.4195 150.443 82.2172 155.856 97.4648 155.833C134.561 155.833 164.668 124.417 164.668 85.708C164.668 46.999 134.561 15.583 97.4648 15.583C60.3687 15.583 30.2617 46.999 30.2617 85.708C30.24 101.619 35.4272 117.06 44.9643 129.474ZM59.9431 123.692C50.4686 113.522 45.1767 99.8917 45.1957 85.708C45.1957 55.5776 68.5899 31.1663 97.4648 31.1663C126.34 31.1663 149.734 55.5776 149.734 85.708C149.734 115.838 126.34 140.25 97.4648 140.25C83.8721 140.27 70.8098 134.748 61.0631 124.861L59.9431 123.692Z" fill="#07BA9A"/>
</svg>
