<svg width="52" height="52" viewBox="0 0 52 52" fill="none" xmlns="http://www.w3.org/2000/svg">
<g clip-path="url(#clip0_2770_2362)">
<path d="M37.7352 46.3332C34.282 48.334 30.2703 49.4715 25.9945 49.4715C13.0352 49.4715 2.52344 38.9598 2.52344 26.0004C2.52344 13.041 13.0352 2.5293 25.9945 2.5293C30.2703 2.5293 34.282 3.67695 37.7352 5.66758C30.7172 9.71992 25.9945 17.3066 25.9945 26.0004C25.9945 34.6941 30.7172 42.2707 37.7352 46.3332Z" fill="#BCF4AB"/>
<path d="M49.5063 14.8796C47.3837 10.3804 44.022 6.60228 39.7868 3.9515C33.8962 0.27494 26.9188 -0.893029 20.1548 0.671034C13.3907 2.22494 7.63211 6.32807 3.95555 12.2187C0.268834 18.1093 -0.899135 25.0765 0.664928 31.8507C2.22899 38.6148 6.33211 44.3734 12.2126 48.0499C16.3563 50.6398 21.1095 52.0109 25.9743 52.0109H26.2891C31.1337 51.9499 35.8462 50.5484 39.929 47.9687C41.1173 47.2171 41.4626 45.6531 40.711 44.4648C39.9595 43.2765 38.3954 42.9312 37.2071 43.6828C33.9266 45.7648 30.1282 46.8921 26.2282 46.9429C22.2266 46.9937 18.3165 45.8867 14.904 43.764C10.161 40.7984 6.86024 36.1671 5.61102 30.7234C4.35165 25.2796 5.29618 19.6734 8.2618 14.9304C14.3759 5.14994 27.3149 2.164 37.0954 8.27807C40.5079 10.4109 43.2095 13.4476 44.9157 17.0632C46.5813 20.5874 47.2313 24.4976 46.7946 28.357C46.6423 29.7484 47.6376 31.0078 49.0391 31.1601C50.4305 31.3124 51.6899 30.3171 51.8423 28.9156C52.3806 24.1117 51.5681 19.257 49.5063 14.8796Z" fill="#25AC88"/>
<path d="M34.3855 17.185L22.1473 29.4334L17.6074 24.8936C16.6121 23.8982 15.0074 23.8982 14.0121 24.8936C13.0168 25.8889 13.0168 27.4936 14.0121 28.4889L20.3496 34.8264C20.8473 35.324 21.4973 35.5678 22.1473 35.5678C22.7973 35.5678 23.4473 35.324 23.9449 34.8264L37.9809 20.7803C38.9762 19.785 38.9762 18.1803 37.9809 17.185C36.9855 16.1896 35.3809 16.1896 34.3855 17.185Z" fill="#25AC88"/>
</g>
<defs>
<clipPath id="clip0_2770_2362">
<rect width="52" height="52" fill="white"/>
</clipPath>
</defs>
</svg>
